<?xml version="1.0" standalone="no"?>
<!DOCTYPE svg PUBLIC "-//W3C//DTD SVG 20010904//EN"
 "http://www.w3.org/TR/2001/REC-SVG-20010904/DTD/svg10.dtd">
<svg version="1.0" xmlns="http://www.w3.org/2000/svg"
 width="2000.000000pt" height="2000.000000pt" viewBox="0 0 2000.000000 2000.000000"
 preserveAspectRatio="xMidYMid meet">

<g transform="translate(0.000000,2000.000000) scale(0.100000,-0.100000)"
fill="#000000" stroke="none">
<path d="M14660 14839 c-83 -13 -220 -59 -307 -103 -249 -126 -489 -391 -658
-726 -94 -186 -185 -480 -200 -642 l-7 -78 -297 0 c-163 0 -1221 7 -2351 15
-1130 8 -2300 15 -2600 15 -517 0 -549 -1 -618 -20 -202 -56 -407 -212 -513
-390 -37 -63 -184 -429 -175 -437 2 -3 14 1 26 7 52 28 317 122 422 149 275
73 710 131 1093 147 262 11 1437 -21 1908 -51 398 -26 516 -49 680 -131 142
-72 392 -240 654 -441 l122 -93 125 0 c102 0 136 -4 180 -20 101 -38 188 -129
222 -234 9 -28 17 -52 18 -53 1 -1 81 -9 177 -18 301 -27 673 -86 890 -140
132 -34 287 -89 382 -136 43 -22 81 -38 83 -36 6 6 334 860 331 863 -1 1 -65
-19 -142 -45 -77 -27 -183 -58 -235 -71 -70 -17 -103 -30 -125 -51 -146 -136
-380 -56 -411 139 -15 95 50 212 141 253 48 22 142 25 188 6 40 -17 99 -66 92
-77 -3 -4 -48 -16 -100 -25 -104 -19 -154 -45 -169 -86 -22 -63 23 -111 103
-110 96 1 418 84 616 158 424 161 788 410 1031 704 33 40 72 86 87 103 43 47
134 204 178 307 22 50 54 144 71 208 30 108 32 127 32 286 0 199 -15 273 -88
420 -103 208 -289 358 -512 415 -94 24 -253 33 -344 19z m305 -205 c203 -52
371 -225 431 -444 25 -89 25 -307 1 -408 -91 -379 -353 -716 -767 -985 -114
-73 -219 -132 -226 -125 -1 2 11 44 28 93 27 80 30 98 26 184 -4 114 -28 172
-95 238 -78 75 -120 85 -420 96 l-263 10 0 27 c0 15 9 72 20 126 79 390 315
806 574 1010 220 175 461 236 691 178z"/>
<path d="M8530 12653 c-331 -10 -823 -71 -1080 -134 -305 -76 -1039 -402
-1700 -757 l-185 -99 -125 -6 c-277 -14 -402 -90 -461 -277 -29 -93 -40 -172
-45 -322 -4 -111 -11 -165 -39 -280 -78 -326 -111 -572 -102 -766 10 -208 53
-345 140 -439 42 -46 124 -93 163 -93 28 0 36 -12 63 -90 74 -211 207 -365
356 -415 l63 -22 -454 -1184 c-655 -1704 -587 -1518 -588 -1624 -1 -63 4 -106
17 -142 26 -74 92 -143 169 -178 59 -27 74 -29 253 -37 149 -6 4280 -33 6000
-40 364 -1 386 2 540 77 161 78 308 216 388 365 19 36 70 158 113 272 l79 208
1266 2 1265 3 -250 1152 c-224 1030 -253 1151 -267 1140 -9 -7 -56 -43 -105
-80 -103 -78 -241 -150 -334 -173 -78 -20 -352 -16 -372 4 -9 9 1 12 48 13 32
0 70 2 84 5 14 2 57 9 95 14 171 26 333 106 478 237 102 93 87 89 222 58 126
-30 249 -7 358 67 64 43 112 102 127 157 19 63 28 288 25 576 -5 437 -40 660
-134 850 -95 191 -179 267 -533 481 -327 198 -388 227 -603 284 -249 67 -658
132 -980 156 -49 4 -119 9 -155 13 l-65 6 -2 45 c-6 101 -52 181 -131 227 -45
27 -54 28 -195 31 l-148 4 -202 152 c-348 261 -574 401 -721 445 -68 21 -242
45 -411 56 -49 3 -117 8 -150 10 -33 2 -127 7 -210 10 -82 3 -181 8 -220 10
-153 10 -1211 32 -1345 28z m-514 -350 c56 -25 83 -67 164 -256 44 -102 80
-191 80 -196 0 -5 -21 -1 -47 9 l-48 18 -63 143 c-68 157 -97 195 -151 206
-113 21 -409 -54 -1106 -280 -159 -52 -306 -97 -325 -101 -156 -29 599 265
1020 397 273 86 388 101 476 60z m2774 -105 c36 -20 224 -164 419 -320 l352
-283 -215 -3 c-119 -1 -314 -1 -434 0 l-217 3 65 24 c35 13 77 36 92 52 61 60
24 179 -118 377 l-67 92 -116 0 c-64 1 -165 3 -226 5 -60 2 -265 6 -455 10
-190 3 -397 8 -460 10 -63 3 -180 7 -260 10 -305 12 -630 33 -645 43 -24 16
130 19 1145 18 l1075 -1 65 -37z m1221 -738 c564 -28 1022 -86 1389 -176 335
-83 487 -175 616 -375 58 -89 124 -229 124 -262 0 -33 -25 -57 -59 -57 -32 0
-52 20 -71 70 -28 74 -90 188 -133 247 -105 141 -232 207 -562 291 -506 129
-1057 192 -1939 222 -165 6 -301 12 -304 14 -7 8 80 17 219 25 203 12 493 12
720 1z m-657 -747 c189 -101 346 -193 364 -215 8 -10 2 -13 -26 -13 -21 0 -82
-4 -137 -8 -113 -9 -180 1 -226 35 -36 27 -73 100 -64 128 6 18 -4 25 -70 55
l-76 35 -277 0 c-276 0 -277 -1 -252 -20 55 -42 204 -112 331 -155 125 -42
131 -45 86 -45 -73 0 -193 28 -277 64 -79 34 -251 137 -310 186 l-35 29 185 2
c102 1 259 5 350 9 91 3 185 7 209 8 38 2 68 -11 225 -95z m-5687 -234 c106
-27 213 -176 265 -369 20 -74 23 -109 23 -275 0 -214 -15 -295 -80 -430 -167
-350 -463 -270 -577 155 -20 74 -23 109 -23 275 0 213 15 291 80 433 43 92
140 193 200 209 54 15 59 15 112 2z m4242 -64 c66 -16 68 -17 109 -78 22 -34
39 -63 38 -65 -2 -2 -19 6 -37 18 -100 61 -267 79 -390 41 -256 -80 -434 -368
-416 -676 12 -194 67 -324 193 -452 64 -66 97 -90 160 -120 79 -38 79 -38 210
-38 l130 0 87 43 c63 31 105 61 152 108 36 36 65 61 65 56 0 -46 -25 -130 -43
-145 -63 -52 -150 -100 -224 -124 -75 -23 -95 -25 -191 -20 -172 8 -284 59
-407 185 -237 242 -282 639 -109 951 52 92 179 216 270 264 126 65 265 83 403
52z m-144 -476 c55 -15 95 -49 133 -112 96 -159 3 -387 -158 -387 -180 0 -277
276 -154 437 32 42 62 58 134 72 3 0 23 -4 45 -10z m4565 -109 c26 -26 26 -72
0 -95 -19 -17 -53 -17 -782 -6 -420 6 -923 18 -1118 26 -195 8 -389 15 -430
16 -41 1 -66 3 -55 5 79 15 1329 55 2055 67 85 1 190 4 233 5 65 2 80 -1 97
-18z m-7100 -245 c25 -1 317 -5 650 -9 333 -3 701 -9 818 -12 183 -5 216 -4
237 10 13 9 26 12 29 7 10 -15 -6 -102 -21 -117 -18 -18 6 -18 -655 11 -983
43 -1695 84 -1773 102 l-30 7 40 7 c34 6 573 2 705 -6z m-340 -370 c36 -3 157
-9 270 -15 113 -6 241 -12 285 -15 44 -3 125 -7 180 -10 93 -5 145 -8 335 -20
41 -3 113 -7 160 -10 176 -11 455 -31 555 -40 28 -2 82 -7 120 -10 39 -4 86
-8 105 -10 19 -2 67 -7 105 -11 39 -3 77 -11 85 -16 29 -18 -1191 0 -1775 26
-60 3 -258 11 -440 17 -181 6 -331 13 -333 14 -1 1 1 28 4 60 l7 58 136 -7
c75 -4 165 -9 201 -11z m-549 -648 c45 -20 93 -74 109 -123 19 -57 6 -154 -38
-284 l-39 -115 -116 -3 c-65 -1 -117 1 -117 6 0 4 16 55 35 112 19 57 35 118
35 135 0 46 -29 69 -87 66 -55 -2 -104 -29 -132 -75 -30 -48 -341 -956 -341
-995 0 -49 24 -71 78 -71 59 0 109 25 137 70 12 20 44 98 70 173 l48 137 113
0 c92 0 114 -3 114 -14 0 -26 -89 -267 -121 -327 -68 -127 -190 -224 -319
-253 -174 -40 -316 -1 -361 98 -21 47 -25 148 -8 211 30 111 325 948 352 1000
18 34 63 92 103 133 74 74 125 104 219 129 64 16 218 10 266 -10z m869 -14 c0
-18 -268 -1498 -276 -1525 -5 -16 -20 -18 -125 -18 -109 0 -119 1 -119 19 0
10 11 73 25 141 14 68 25 129 25 136 0 11 -27 14 -133 14 l-132 0 -78 -155
-77 -155 -110 0 c-72 0 -110 4 -110 11 0 6 68 144 151 307 298 583 428 840
528 1040 l102 202 165 0 c146 0 164 -2 164 -17z m841 3 c169 -39 202 -138 124
-371 -21 -60 -51 -136 -67 -169 -36 -72 -107 -150 -171 -186 l-48 -27 25 -17
c44 -28 59 -71 53 -150 -3 -54 -25 -130 -86 -311 -44 -132 -81 -257 -81 -277
l0 -38 -125 0 -125 0 0 37 c0 21 36 144 80 274 89 262 96 308 55 335 -15 10
-55 19 -93 22 l-68 4 -116 -333 -115 -334 -122 -3 c-130 -3 -133 -2 -111 50 5
13 118 338 250 723 133 385 248 719 257 743 l16 42 206 0 c136 0 225 -5 262
-14z m1254 -1 c33 -9 71 -24 85 -34 66 -47 91 -130 70 -233 -17 -90 -306 -922
-348 -1003 -45 -86 -138 -182 -212 -218 -93 -45 -173 -57 -402 -57 -115 0
-208 2 -208 3 0 2 95 278 211 613 115 335 235 680 264 767 30 87 57 162 60
167 11 17 411 12 480 -5z m1085 9 c0 -4 -17 -56 -37 -115 l-38 -109 -210 0
-211 0 -64 -187 c-35 -104 -65 -194 -68 -200 -3 -10 33 -13 162 -13 91 0 166
-1 166 -2 -1 -2 -18 -52 -39 -113 l-38 -110 -169 -5 -169 -5 -77 -220 c-42
-121 -77 -226 -77 -232 -1 -10 46 -13 204 -13 113 0 205 -3 205 -7 0 -5 -16
-56 -37 -115 l-37 -108 -334 0 c-273 0 -333 2 -330 13 2 8 122 359 268 780
l265 767 332 0 c183 0 333 -3 333 -6z m660 4 c0 -2 -22 -124 -50 -273 -27
-148 -91 -498 -141 -777 l-93 -508 -123 0 c-68 0 -123 4 -123 9 0 8 45 235 55
279 5 22 5 22 -130 22 l-135 0 -77 -155 -78 -155 -112 0 c-62 0 -113 2 -113 5
0 3 69 142 154 308 84 166 258 509 386 762 128 253 237 466 243 473 7 9 54 12
173 12 90 0 164 -1 164 -2z m610 -4 c0 -4 -101 -300 -225 -658 -124 -358 -225
-655 -225 -659 0 -4 88 -7 195 -7 107 0 195 -3 195 -7 0 -5 -16 -56 -36 -115
l-37 -108 -325 0 c-255 0 -323 3 -320 13 2 6 123 357 269 780 l264 767 122 0
c68 0 123 -3 123 -6z m1180 -1 c0 -5 -16 -56 -36 -115 l-36 -108 -211 0 -212
0 -64 -188 c-35 -103 -66 -193 -69 -199 -3 -10 33 -13 162 -13 91 0 166 -3
165 -7 0 -5 -17 -55 -37 -113 l-38 -105 -168 -5 -169 -5 -78 -225 c-43 -124
-78 -228 -79 -232 0 -5 92 -8 205 -8 113 0 205 -3 205 -7 0 -5 -16 -56 -36
-115 l-36 -108 -334 0 c-184 0 -334 1 -334 3 0 9 528 1536 535 1548 7 11 665
13 665 2z m675 -28 c112 -58 126 -145 56 -355 -66 -196 -130 -292 -239 -353
l-43 -24 25 -17 c14 -9 33 -31 42 -48 31 -59 15 -146 -75 -408 -51 -148 -81
-251 -81 -277 l0 -43 -125 0 -125 0 0 39 c0 21 35 143 80 277 81 241 90 286
67 318 -14 20 -73 35 -133 36 l-42 0 -46 -132 c-26 -73 -77 -223 -115 -333
l-69 -200 -121 -3 c-96 -2 -121 0 -121 11 0 9 475 1397 525 1535 4 11 51 13
243 10 l238 -3 59 -30z m-7782 -1926 c40 -11 43 -16 25 -54 -10 -22 -16 -25
-42 -19 -34 8 -73 7 -87 -2 -11 -6 -12 -45 -1 -59 4 -6 22 -21 40 -34 117 -82
61 -231 -87 -231 -77 0 -101 15 -101 63 0 33 3 38 18 32 52 -23 92 -28 116
-17 40 18 34 54 -15 94 -91 73 -94 165 -5 219 35 21 82 24 139 8z m637 -7 c50
-25 72 -69 71 -146 -1 -147 -85 -246 -208 -246 -57 0 -105 26 -128 69 -19 38
-20 136 0 192 43 121 165 182 265 131z m448 -1 c21 -11 21 -13 6 -45 l-16 -33
-40 14 c-97 33 -188 -48 -188 -167 0 -51 34 -90 78 -90 35 0 47 13 56 59 6 33
6 33 -29 29 -38 -4 -38 -5 -29 41 l7 31 79 0 c71 0 79 -2 74 -17 -2 -10 -13
-57 -22 -106 -18 -86 -18 -87 -54 -97 -54 -15 -138 -12 -177 7 -78 36 -94 168
-36 276 31 56 60 81 119 103 43 16 138 13 172 -5z m1273 7 c43 -13 45 -17 24
-57 -14 -29 -15 -29 -55 -15 -67 23 -128 -2 -159 -65 -43 -86 -30 -173 28
-186 55 -12 80 9 81 68 0 13 -8 17 -34 17 -32 0 -33 1 -27 33 l7 32 77 3 c58
2 77 0 77 -10 -1 -34 -39 -191 -48 -200 -6 -6 -47 -13 -90 -16 -131 -7 -182
37 -182 158 0 175 141 287 301 238z m358 -6 c59 -29 76 -63 76 -146 -1 -142
-75 -236 -193 -243 -114 -8 -166 49 -159 173 6 110 64 200 146 224 44 14 94
11 130 -8z m680 -2 c20 -10 20 -12 6 -40 -17 -34 -17 -34 -63 -21 -45 13 -82
-1 -82 -31 0 -15 20 -41 55 -73 50 -47 55 -55 55 -94 0 -56 -21 -95 -64 -115
-39 -18 -109 -21 -155 -5 -28 10 -31 15 -31 50 0 21 2 39 4 39 2 0 20 -7 39
-15 49 -20 83 -19 107 5 25 25 13 56 -31 85 -92 61 -89 178 6 222 33 15 120
12 154 -7z m-3210 -127 c-16 -76 -31 -148 -34 -160 -5 -21 -1 -22 62 -25 l68
-3 -4 -30 c-1 -16 -5 -33 -8 -37 -6 -11 -223 -10 -223 1 0 5 18 93 40 196 22
103 40 189 40 191 0 2 20 4 44 4 l44 0 -29 -137z m1201 134 c0 -2 9 -90 20
-197 11 -107 20 -196 20 -198 0 -2 -19 -2 -42 0 l-43 3 -3 48 -3 47 -63 0 -63
0 -23 -50 c-23 -49 -25 -50 -67 -50 -24 0 -43 3 -43 6 0 6 77 156 168 327 l36
67 53 0 c29 0 53 -1 53 -3z m280 -34 c5 -21 25 -85 43 -142 l33 -103 29 141
29 141 38 0 c21 0 38 -5 38 -10 0 -6 -18 -94 -40 -196 -22 -103 -40 -188 -40
-191 0 -2 -21 -3 -47 -1 l-48 3 -45 137 c-25 76 -47 138 -50 138 -3 0 -16 -58
-29 -129 -13 -72 -27 -135 -31 -141 -7 -11 -75 -11 -75 0 1 3 19 92 40 198
l40 192 52 0 c52 0 52 0 63 -37z m1460 25 c0 -7 -3 -23 -6 -35 -6 -21 -12 -23
-74 -23 l-68 0 -10 -40 -10 -40 64 0 c35 0 64 -4 64 -9 0 -5 -3 -23 -6 -40 -6
-31 -7 -31 -70 -31 -34 0 -65 -3 -68 -8 -2 -4 -7 -24 -11 -45 l-7 -37 66 0
c71 0 74 -3 60 -57 -6 -22 -11 -23 -115 -23 -87 0 -109 3 -109 14 0 15 67 338
76 369 5 15 19 17 115 17 81 0 109 -3 109 -12z m600 -5 c0 -10 -6 -44 -14 -75
l-13 -58 62 0 62 0 12 58 c21 95 18 92 62 92 28 0 39 -4 39 -15 0 -15 -66
-332 -76 -367 -4 -13 -16 -18 -45 -18 -45 0 -46 4 -24 95 8 33 14 64 15 68 0
4 -28 7 -62 5 l-61 -3 -14 -60 c-7 -33 -15 -70 -18 -82 -4 -19 -12 -23 -45
-23 -28 0 -40 4 -40 14 0 15 67 338 76 369 4 12 16 17 45 17 31 0 39 -4 39
-17z m530 5 c0 -7 -3 -23 -6 -35 -6 -21 -12 -23 -74 -23 l-68 0 -10 -40 -10
-40 64 0 c35 0 64 -4 64 -9 0 -5 -3 -23 -6 -40 -6 -31 -7 -31 -70 -31 -34 0
-65 -3 -68 -8 -2 -4 -7 -24 -11 -45 l-7 -37 66 0 c71 0 74 -3 60 -57 -6 -22
-11 -23 -115 -23 -87 0 -109 3 -109 14 0 15 67 338 76 369 5 15 19 17 115 17
81 0 109 -3 109 -12z m277 -21 c23 -23 28 -36 28 -78 0 -46 -4 -54 -37 -85
-21 -19 -38 -38 -38 -43 0 -5 14 -41 30 -79 17 -39 30 -74 30 -77 0 -3 -21 -5
-46 -3 l-47 3 -27 75 c-40 110 -50 104 -85 -57 -5 -19 -12 -23 -45 -23 -28 0
-40 4 -40 14 0 15 67 339 76 369 5 17 15 19 90 15 76 -3 86 -6 111 -31z m359
11 c-3 -13 -6 -29 -6 -35 0 -9 -21 -13 -69 -13 -64 0 -70 -2 -76 -22 -18 -62
-22 -58 50 -58 l67 0 -7 -32 c-11 -48 -11 -48 -79 -48 -63 0 -64 0 -70 -31
-11 -59 -11 -59 59 -59 36 0 65 -4 65 -9 0 -5 -3 -23 -6 -40 l-6 -31 -108 0
c-58 0 -109 2 -111 5 -3 2 13 92 35 200 l41 195 114 0 c113 0 113 0 107 -22z"/>
<path d="M5556 10406 c-106 -39 -195 -192 -230 -395 -36 -211 -3 -457 81 -600
83 -141 188 -190 294 -136 48 25 116 112 149 191 43 104 60 188 67 324 17 378
-164 688 -361 616z m59 -358 c31 -14 74 -98 84 -165 15 -108 -27 -249 -81
-267 -44 -15 -75 6 -106 72 -50 110 -31 300 35 352 30 23 34 24 68 8z"/>
<path d="M5553 9973 c-28 -42 -26 -215 3 -263 11 -20 29 -36 42 -38 26 -4 28
5 6 29 -25 27 -43 89 -43 144 0 44 8 76 34 138 12 28 -22 21 -42 -10z"/>
<path d="M9674 9862 c-60 -48 -79 -187 -37 -267 40 -76 99 -110 138 -81 16 12
17 15 4 16 -8 0 -27 12 -42 28 -73 76 -77 225 -8 286 11 11 21 23 21 28 0 15
-54 8 -76 -10z"/>
<path d="M6759 7909 c-96 -198 -175 -365 -177 -370 -2 -5 42 -9 102 -9 58 0
106 1 106 3 0 4 68 339 115 561 19 93 34 171 32 173 -2 2 -82 -159 -178 -358z"/>
<path d="M7726 8268 c-43 -121 -126 -361 -126 -365 0 -1 24 -3 53 -3 126 0
185 45 236 180 85 222 75 260 -67 260 l-70 0 -26 -72z"/>
<path d="M8811 7802 c-102 -295 -187 -543 -189 -551 -4 -10 13 -12 86 -10 97
4 124 16 165 71 29 38 317 874 324 939 8 76 -10 89 -122 89 l-80 0 -184 -538z"/>
<path d="M10675 8078 c-54 -112 -134 -277 -178 -368 -43 -91 -81 -169 -84
-173 -2 -4 44 -6 103 -5 l108 3 33 160 c17 88 52 255 76 370 25 116 44 211 42
213 -1 1 -46 -89 -100 -200z"/>
<path d="M13145 8328 c-23 -63 -145 -421 -145 -425 0 -12 147 5 178 21 49 26
87 86 126 204 61 182 49 212 -82 212 -49 0 -74 -4 -77 -12z"/>
<path d="M6270 6543 c-28 -10 -70 -56 -81 -91 -6 -19 -12 -57 -12 -85 -1 -41
3 -53 23 -69 33 -27 77 -17 112 24 45 52 60 178 25 206 -17 14 -50 21 -67 15z"/>
<path d="M8345 6540 c-48 -19 -85 -93 -85 -170 0 -82 55 -116 114 -69 37 29
55 69 62 136 5 48 3 62 -12 80 -23 26 -52 34 -79 23z"/>
<path d="M7019 6460 l-36 -75 35 -3 c19 -2 36 -1 38 1 3 3 4 38 2 78 l-3 74
-36 -75z"/>
<path d="M10131 6496 c-6 -25 -11 -47 -11 -50 0 -13 60 -5 74 10 22 21 20 61
-3 74 -36 19 -48 11 -60 -34z"/>
</g>
</svg>
