<?xml version="1.0" standalone="no"?>
<!DOCTYPE svg PUBLIC "-//W3C//DTD SVG 20010904//EN"
 "http://www.w3.org/TR/2001/REC-SVG-20010904/DTD/svg10.dtd">
<svg version="1.0" xmlns="http://www.w3.org/2000/svg"
 width="128.000000pt" height="128.000000pt" viewBox="0 0 128.000000 128.000000"
 preserveAspectRatio="xMidYMid meet">

<g transform="translate(0.000000,128.000000) scale(0.100000,-0.100000)"
fill="#000000" stroke="none">
<path d="M611 1054 c-26 -33 -25 -28 -25 -142 l-1 -92 -203 -3 c-248 -3 -235
6 -230 -143 2 -80 7 -106 20 -121 15 -16 18 -39 18 -126 l0 -106 -27 -3 c-27
-3 -28 -6 -31 -61 l-3 -57 513 2 513 3 3 43 c4 47 -10 72 -39 72 -18 0 -19 9
-19 124 0 98 3 126 15 136 11 9 15 35 15 104 0 137 12 130 -229 134 l-201 4
-1 56 c0 31 0 75 1 98 1 31 -5 48 -25 72 -32 39 -38 39 -64 6z m49 -34 c6 -12
10 -33 8 -48 -2 -21 -8 -27 -28 -27 -20 0 -26 6 -28 27 -3 29 13 68 28 68 5 0
14 -9 20 -20z m8 -157 c3 -40 1 -43 -22 -43 -24 0 -26 3 -26 46 0 41 2 45 23
42 18 -2 23 -10 25 -45z m410 -80 c21 -5 22 -10 22 -93 0 -61 -4 -91 -13 -99
-19 -15 -27 -4 -27 40 0 42 -21 69 -54 69 -37 0 -46 -19 -46 -96 0 -74 -12
-100 -43 -89 -10 4 -16 25 -19 66 -5 66 -22 92 -62 92 -37 0 -56 -20 -56 -60
0 -44 -16 -73 -40 -73 -28 0 -40 30 -40 99 0 49 -4 62 -19 71 -26 13 -33 13
-57 -4 -16 -12 -20 -30 -24 -113 -5 -90 -7 -98 -25 -98 -17 0 -21 8 -25 52 -6
61 -18 76 -60 76 -37 0 -50 -11 -59 -54 -7 -36 -30 -55 -55 -46 -12 5 -16 20
-16 61 0 30 -5 66 -11 80 -25 54 -99 33 -99 -28 0 -46 -9 -66 -29 -66 -33 0
-41 22 -41 112 0 72 3 89 18 97 18 10 838 14 880 4z m-398 -182 c0 -63 19 -91
61 -91 38 0 69 41 69 91 0 34 3 39 24 39 29 0 36 -16 36 -80 0 -39 4 -52 22
-64 31 -22 45 -20 73 9 22 21 25 33 25 95 0 63 2 71 18 68 12 -2 18 -15 20
-46 2 -29 9 -46 23 -55 17 -11 19 -24 19 -129 l0 -118 -425 0 -425 0 0 108 c0
106 1 109 24 120 24 10 29 25 39 102 1 8 9 15 17 15 11 0 17 -17 21 -65 8 -82
15 -99 45 -106 52 -13 94 20 94 75 0 23 28 35 46 20 8 -6 14 -30 14 -52 0 -67
49 -99 92 -60 15 13 18 32 18 109 0 65 4 94 13 97 22 8 37 -25 37 -82z m445
-341 l0 -25 -482 -3 -483 -2 0 30 0 30 483 -2 482 -3 0 -25z"/>
</g>
</svg>
