<?xml version="1.0" standalone="no"?>
<!DOCTYPE svg PUBLIC "-//W3C//DTD SVG 20010904//EN"
 "http://www.w3.org/TR/2001/REC-SVG-20010904/DTD/svg10.dtd">
<svg version="1.0" xmlns="http://www.w3.org/2000/svg"
 width="512.000000pt" height="421.000000pt" viewBox="0 0 512.000000 421.000000"
 preserveAspectRatio="xMidYMid meet">

<g transform="translate(0.000000,421.000000) scale(0.100000,-0.100000)"
fill="#000000" stroke="none">
<path d="M4720 4189 c-172 -28 -335 -177 -441 -403 -39 -85 -79 -219 -79 -269
l0 -29 -1337 3 -1338 4 -50 -24 c-27 -14 -75 -49 -106 -78 -55 -53 -77 -90
-129 -222 -19 -49 -19 -53 -3 -47 186 72 349 107 595 127 225 18 1057 -12
1173 -42 81 -22 229 -111 382 -231 59 -45 66 -48 123 -48 41 0 74 -7 99 -20
38 -19 81 -73 81 -101 0 -11 43 -20 183 -37 209 -25 358 -59 452 -101 l66 -30
9 22 c29 67 139 361 136 364 -1 2 -22 -4 -46 -12 -24 -9 -71 -22 -104 -31 -34
-9 -68 -22 -76 -29 -71 -64 -180 -16 -180 80 0 80 72 131 143 102 48 -21 53
-34 15 -42 -51 -10 -86 -26 -92 -41 -8 -22 4 -44 29 -50 27 -7 205 35 299 70
174 66 355 187 453 304 26 31 55 65 64 75 9 9 30 45 47 79 l32 61 0 202 0 202
-29 43 c-76 113 -224 172 -371 149z m160 -95 c70 -21 149 -98 173 -168 62
-181 -33 -417 -232 -583 -60 -49 -188 -133 -204 -133 -3 0 0 19 8 41 30 84 10
164 -52 205 -27 18 -54 23 -162 29 l-129 7 5 36 c10 72 66 222 109 295 80 137
185 234 293 268 70 22 123 23 191 3z"/>
<path d="M1815 3193 c-22 -2 -105 -12 -185 -24 -226 -31 -399 -97 -820 -310
-158 -80 -225 -109 -252 -109 -64 0 -137 -21 -170 -48 -44 -37 -58 -80 -74
-217 -7 -66 -22 -163 -34 -215 -31 -141 -37 -291 -15 -365 22 -76 48 -113 97
-135 32 -14 44 -29 72 -86 37 -77 82 -125 138 -148 37 -16 37 -16 24 -48 -84
-201 -458 -1198 -462 -1230 -8 -61 27 -126 81 -153 39 -20 69 -20 1515 -29
1652 -9 1523 -14 1633 64 72 52 110 108 161 237 l41 104 573 -1 c438 0 572 2
572 12 0 12 -221 1031 -224 1035 -1 1 -25 -15 -53 -35 -96 -73 -190 -101 -278
-84 -45 9 -47 10 -15 11 52 2 155 28 200 51 22 11 62 40 90 65 46 41 52 43 80
33 53 -18 143 -6 184 26 64 49 68 66 68 290 0 309 -35 444 -139 536 -56 49
-265 177 -341 207 -98 41 -436 103 -560 103 -62 0 -82 10 -82 37 0 31 -26 75
-53 92 -11 8 -54 16 -96 20 -74 6 -78 8 -156 68 -124 93 -250 173 -309 194
-30 10 -103 23 -162 29 -225 20 -904 36 -1049 23z m-95 -153 c23 -12 30 -24
75 -130 32 -75 33 -79 12 -71 -14 5 -35 36 -59 84 -23 48 -44 78 -58 82 -42
13 -180 -20 -477 -116 -102 -33 -187 -58 -190 -56 -4 5 213 92 342 137 215 75
310 94 355 70z m1248 -44 c15 -8 101 -73 191 -145 l163 -131 -193 0 c-174 1
-191 2 -162 15 17 7 36 22 41 32 14 25 -7 82 -54 149 l-36 54 -169 0 c-215 0
-709 19 -774 29 -30 5 155 9 458 10 417 1 513 -1 535 -13z m703 -346 c283 -23
532 -71 637 -124 111 -56 229 -251 160 -264 -13 -2 -25 14 -46 60 -55 120
-117 167 -282 212 -206 56 -492 91 -836 103 -115 3 -198 10 -184 14 39 11 401
10 551 -1z m-468 -316 c29 -15 83 -45 122 -67 79 -46 74 -55 -28 -56 -49 -1
-62 3 -82 24 -14 13 -25 32 -25 43 0 36 -59 52 -191 52 -79 0 -118 -4 -114
-10 8 -13 75 -47 140 -72 l50 -18 -47 5 c-48 5 -119 36 -192 84 l-40 26 55 6
c30 3 109 6 177 7 114 2 126 0 175 -24z m-2517 -141 c13 -8 38 -44 55 -79 28
-56 33 -78 37 -163 6 -129 -20 -226 -78 -283 -72 -72 -148 -43 -201 77 -31 69
-38 227 -14 311 39 139 117 192 201 137z m1903 -16 c13 -6 30 -21 38 -33 l13
-21 -57 19 c-95 32 -177 7 -251 -77 -129 -146 -85 -404 83 -481 92 -43 192
-26 264 47 l34 34 -7 -30 c-10 -43 -57 -82 -122 -101 -174 -50 -344 88 -361
294 -16 191 120 362 287 362 30 0 66 -6 79 -13z m-39 -237 c16 -17 31 -44 35
-60 14 -63 -37 -140 -92 -140 -34 0 -80 49 -88 93 -21 109 76 180 145 107z
m2028 -19 c8 -5 12 -17 10 -27 -3 -18 -18 -19 -353 -18 -193 0 -435 4 -540 9
l-190 10 110 6 c61 4 268 10 460 14 193 4 352 9 354 11 9 8 137 3 149 -5z
m-2433 -129 c-3 -8 -5 -21 -5 -29 0 -14 -22 -15 -197 -10 -251 9 -743 36 -848
46 -50 6 136 8 488 7 468 -1 566 -3 562 -14z m-675 -167 c553 -30 895 -64 642
-65 -124 0 -787 19 -837 25 -22 2 -83 4 -136 4 l-96 1 5 30 4 30 72 -6 c39 -2
195 -11 346 -19z m-501 -292 c41 -31 47 -70 22 -152 l-22 -71 -54 0 -54 0 15
44 c22 64 16 90 -22 94 -20 2 -36 -4 -48 -16 -19 -22 -166 -435 -166 -469 0
-16 8 -25 25 -29 42 -10 70 17 100 100 l28 76 53 0 53 0 -25 -72 c-49 -144
-117 -203 -237 -203 -63 0 -71 2 -93 28 -16 18 -24 41 -24 63 0 39 126 418
166 502 54 112 200 166 283 105z m377 -10 c-3 -16 -31 -167 -61 -338 -31 -171
-58 -318 -61 -327 -4 -14 -17 -18 -60 -18 -30 0 -54 3 -54 8 1 4 7 35 14 70
l14 62 -62 0 -62 0 -34 -70 -34 -70 -53 0 -53 0 41 83 c23 45 104 205 181 355
l140 272 75 0 75 0 -6 -27z m401 12 c46 -19 53 -30 53 -80 1 -87 -72 -225
-130 -248 -13 -5 -12 -7 3 -17 27 -17 21 -84 -18 -200 -19 -57 -35 -114 -35
-127 0 -21 -4 -23 -60 -23 -41 0 -60 4 -60 13 0 6 18 66 39 132 46 138 43 158
-16 153 l-36 -3 -51 -147 -51 -148 -57 0 -57 0 24 68 c12 37 66 192 119 345
52 153 98 282 101 288 10 16 191 11 232 -6z m555 5 c46 -13 68 -43 68 -92 0
-51 -143 -463 -178 -513 -15 -22 -48 -51 -72 -65 -39 -22 -60 -25 -162 -28
-65 -2 -118 -2 -118 1 0 3 54 162 120 353 66 191 120 349 120 351 0 8 189 2
222 -7z m488 3 c0 -5 -8 -29 -17 -55 l-17 -48 -95 0 -96 0 -31 -90 -30 -90 73
0 c80 0 80 -1 59 -60 l-13 -35 -78 -5 -78 -5 -33 -95 c-18 -52 -33 -101 -34
-107 0 -10 24 -13 90 -13 50 0 90 -3 90 -7 0 -4 -7 -27 -16 -50 l-17 -43 -148
0 c-82 0 -149 4 -149 9 0 6 173 514 235 689 3 9 43 12 155 12 82 0 150 -3 150
-7z m300 1 c0 -11 -121 -668 -126 -686 -4 -14 -17 -18 -60 -18 -30 0 -54 3
-54 8 1 4 7 35 14 70 l14 62 -62 0 -62 0 -34 -70 -34 -70 -54 0 -54 0 145 283
c80 155 161 315 181 355 l36 72 75 0 c41 0 75 -3 75 -6z m275 -11 c-3 -10 -49
-139 -100 -288 -51 -148 -96 -278 -100 -288 -7 -17 -1 -18 84 -15 50 2 91 0
91 -3 0 -3 -7 -26 -16 -52 l-16 -47 -148 0 -149 0 24 68 c13 37 64 184 113
327 50 143 95 272 101 288 10 25 15 27 67 27 49 0 55 -2 49 -17z m535 9 c0 -5
-7 -29 -16 -55 l-16 -46 -95 -3 -95 -3 -29 -80 c-16 -44 -29 -83 -29 -87 0 -5
34 -8 75 -8 l75 0 -18 -47 -18 -48 -76 -3 -76 -3 -36 -102 c-20 -56 -36 -105
-36 -109 0 -5 41 -8 91 -8 l91 0 -6 -25 c-3 -13 -11 -36 -16 -50 l-10 -25
-150 0 c-82 0 -150 2 -150 4 0 2 54 160 120 351 66 191 120 349 120 351 0 2
68 4 150 4 83 0 150 -4 150 -8z m299 -8 c53 -21 65 -55 46 -129 -8 -30 -21
-70 -29 -88 -17 -42 -73 -107 -92 -107 -19 0 -18 -16 1 -24 25 -9 18 -84 -20
-196 -19 -57 -35 -114 -35 -127 0 -21 -4 -23 -60 -23 -41 0 -60 4 -60 12 0 7
18 68 41 136 46 138 44 155 -19 150 l-35 -3 -51 -147 -51 -148 -57 0 -57 0 24
68 c13 37 64 184 113 327 50 143 95 272 101 288 10 27 11 27 106 27 63 0 108
-5 134 -16z m-3506 -880 c15 -15 -6 -33 -34 -27 -23 4 -29 2 -29 -12 0 -10 11
-28 25 -41 30 -28 32 -55 6 -78 -25 -23 -94 -19 -99 6 -3 14 3 16 31 11 46 -7
59 13 25 41 -34 29 -41 54 -23 82 12 18 25 24 54 24 21 0 40 -3 44 -6z m73
-31 c-21 -124 -22 -113 12 -113 24 0 30 -4 26 -15 -4 -11 -21 -15 -56 -15 -50
0 -50 0 -45 28 4 15 12 55 18 90 10 51 16 62 32 62 17 0 19 -5 13 -37z m219
17 c24 -27 16 -102 -16 -136 -27 -29 -88 -33 -114 -7 -27 26 -15 110 19 140
34 29 86 31 111 3z m188 14 c14 -14 -6 -34 -29 -28 -50 13 -105 -63 -74 -101
18 -22 50 -19 50 5 0 11 -7 20 -15 20 -9 0 -12 6 -9 15 4 9 19 15 41 15 34 0
34 -1 28 -32 -14 -69 -13 -68 -65 -68 -54 0 -80 22 -80 68 0 35 28 88 53 100
24 12 90 16 100 6z m138 -16 c0 -13 3 -53 8 -90 6 -61 5 -68 -10 -68 -10 0
-21 9 -24 20 -4 14 -15 20 -35 20 -20 0 -31 -6 -35 -20 -6 -18 -45 -30 -45
-14 0 4 20 45 46 90 37 70 49 84 70 84 18 0 24 -5 25 -22z m137 -39 c20 -65
26 -63 37 15 6 37 11 46 27 46 16 0 19 -5 15 -22 -3 -13 -11 -54 -18 -91 -12
-64 -14 -68 -38 -65 -20 2 -28 13 -45 63 l-20 60 -8 -40 c-16 -80 -18 -85 -37
-85 -17 0 -18 4 -11 33 5 17 14 58 20 90 10 50 14 57 35 57 21 0 27 -9 43 -61z
m315 55 c3 -3 3 -12 0 -20 -4 -10 -15 -13 -38 -8 -27 5 -36 1 -54 -21 -33 -43
-24 -101 15 -93 24 4 32 38 9 38 -33 0 -7 25 29 28 32 3 37 1 33 -15 -3 -10
-8 -33 -12 -50 -6 -31 -9 -33 -53 -33 -57 0 -82 21 -82 67 0 68 42 112 106
113 22 0 43 -3 47 -6z m175 -26 c31 -67 -17 -148 -87 -148 -53 0 -76 31 -66
89 10 59 48 93 99 89 33 -2 43 -8 54 -30z m162 25 c-1 -22 -20 -35 -43 -31
-19 4 -27 0 -30 -14 -4 -14 1 -18 25 -18 43 0 35 -34 -10 -38 -24 -2 -32 -8
-32 -23 0 -15 7 -19 31 -19 53 0 28 -25 -29 -28 -29 -2 -52 -1 -52 2 0 9 30
151 35 164 5 13 105 18 105 5z m123 1 c15 -15 -6 -33 -34 -27 -23 4 -29 2 -29
-12 0 -10 11 -28 25 -41 30 -28 32 -55 6 -78 -25 -23 -94 -19 -99 6 -3 14 3
16 31 11 43 -7 59 13 30 37 -37 29 -46 58 -28 86 12 18 24 24 54 24 21 0 40
-3 44 -6z m143 -30 c-7 -34 -6 -35 21 -32 22 2 29 9 33 33 4 22 11 31 28 33
19 3 23 0 18 -15 -3 -10 -10 -40 -16 -68 -5 -27 -12 -60 -15 -72 -4 -15 -13
-23 -26 -23 -17 0 -19 4 -13 35 6 32 4 35 -19 35 -25 0 -37 -16 -37 -51 0 -13
-7 -19 -24 -19 -23 0 -24 2 -16 33 5 17 14 58 20 90 9 47 15 57 32 57 18 0 19
-4 14 -36z m242 19 c-2 -12 -14 -19 -36 -21 -39 -4 -45 -32 -6 -32 37 0 28
-33 -11 -40 -43 -7 -47 -40 -6 -40 21 0 31 -5 31 -15 0 -12 -13 -15 -55 -15
-62 0 -58 -11 -35 90 4 19 11 47 14 63 6 25 10 27 57 27 43 0 50 -3 47 -17z
m126 1 c22 -21 20 -61 -3 -76 -18 -11 -19 -15 -5 -46 18 -43 18 -42 -6 -42
-13 0 -25 12 -36 38 l-17 37 -9 -37 c-7 -28 -15 -38 -30 -38 -17 0 -19 5 -15
28 4 15 12 55 18 90 l12 62 38 0 c21 0 45 -7 53 -16z m164 -1 c-2 -12 -14 -19
-35 -21 -43 -4 -53 -32 -12 -32 44 0 36 -34 -9 -38 -24 -2 -32 -8 -32 -23 0
-14 7 -19 30 -19 20 0 30 -5 30 -15 0 -12 -13 -15 -56 -15 -48 0 -55 2 -50 18
2 9 7 33 11 52 4 19 11 52 16 73 10 37 10 37 60 37 43 0 50 -3 47 -17z"/>
<path d="M580 2168 c-19 -13 -45 -45 -59 -73 -21 -42 -26 -67 -29 -155 -3 -90
-1 -113 19 -165 55 -148 158 -156 222 -17 19 40 22 65 22 162 0 104 -3 121
-27 172 -40 85 -93 113 -148 76z m67 -178 c34 -67 1 -191 -44 -164 -39 23 -51
122 -22 176 14 26 50 20 66 -12z"/>
<path d="M594 1978 c-21 -34 3 -147 28 -132 7 4 6 9 -2 14 -18 11 -25 97 -10
115 8 9 8 15 2 15 -6 0 -14 -5 -18 -12z"/>
<path d="M2456 1918 c-35 -50 -4 -148 46 -148 19 0 19 2 -6 26 -30 31 -35 86
-10 122 13 19 13 22 0 22 -8 0 -22 -10 -30 -22z"/>
<path d="M1203 1173 c-8 -21 -44 -95 -79 -165 l-64 -128 48 0 48 0 35 165 c20
91 34 165 32 165 -2 0 -11 -17 -20 -37z"/>
<path d="M1560 1144 c-18 -52 -30 -98 -27 -100 12 -13 79 10 97 33 25 32 55
126 47 147 -4 11 -19 16 -46 16 l-39 0 -32 -96z"/>
<path d="M2149 1213 c-26 -69 -159 -459 -159 -467 0 -18 85 3 105 26 27 32
161 428 152 451 -5 12 -18 17 -47 17 -35 0 -42 -4 -51 -27z"/>
<path d="M2951 1186 c-5 -12 -41 -87 -80 -165 l-71 -141 49 0 48 0 17 83 c9
45 25 119 35 165 19 81 19 105 2 58z"/>
<path d="M4010 1144 c-18 -52 -30 -98 -27 -100 12 -13 79 10 97 33 25 32 55
126 47 147 -4 11 -19 16 -46 16 l-39 0 -32 -96z"/>
<path d="M900 410 c-15 -15 -20 -31 -18 -58 3 -32 6 -37 28 -37 30 0 51 36 48
80 -4 37 -29 44 -58 15z"/>
<path d="M1262 395 c-11 -23 -11 -30 0 -36 14 -9 22 16 16 48 -2 12 -7 9 -16
-12z"/>
<path d="M1847 412 c-23 -25 -26 -81 -5 -95 29 -19 60 18 56 67 -3 46 -24 58
-51 28z"/>
<path d="M2675 409 c-8 -25 -1 -34 20 -26 19 8 20 33 1 40 -9 4 -17 -2 -21
-14z"/>
</g>
</svg>
