<?xml version="1.0" standalone="no"?>
<!DOCTYPE svg PUBLIC "-//W3C//DTD SVG 20010904//EN"
 "http://www.w3.org/TR/2001/REC-SVG-20010904/DTD/svg10.dtd">
<svg version="1.0" xmlns="http://www.w3.org/2000/svg"
 width="128.000000pt" height="128.000000pt" viewBox="0 0 128.000000 128.000000"
 preserveAspectRatio="xMidYMid meet">

<g transform="translate(0.000000,128.000000) scale(0.100000,-0.100000)"
fill="#000000" stroke="none">
<path d="M588 1144 c-15 -8 -32 -23 -38 -34 -13 -24 -13 -86 0 -110 7 -13 5
-21 -6 -31 -24 -20 -44 -65 -44 -99 l0 -30 140 0 140 0 0 30 c0 34 -20 79 -44
99 -13 11 -13 16 0 47 38 91 -60 176 -148 128z m92 -42 c43 -35 17 -112 -38
-112 -58 0 -87 82 -40 114 29 21 51 20 78 -2z m31 -171 c16 -16 29 -34 29 -40
0 -7 -35 -11 -100 -11 -65 0 -100 4 -100 11 0 6 13 24 29 40 41 41 101 41 142
0z"/>
<path d="M390 1048 c0 -8 4 -18 10 -24 6 -6 -4 -21 -32 -42 -192 -148 -221
-433 -62 -628 57 -70 164 -130 164 -91 0 6 -20 25 -44 40 -63 39 -113 99 -150
176 -28 60 -31 75 -31 161 0 82 4 103 27 153 32 68 77 128 119 158 29 21 31
21 44 3 9 -13 17 -16 23 -9 15 15 33 88 24 97 -4 4 -26 10 -49 14 -34 5 -43 3
-43 -8z"/>
<path d="M814 1018 c-4 -7 0 -16 11 -22 144 -84 223 -226 213 -381 -4 -60 -12
-90 -41 -149 -44 -87 -124 -170 -139 -142 -17 31 -37 13 -52 -46 -5 -23 -2
-30 23 -43 17 -8 39 -15 51 -15 24 0 27 25 4 38 -12 7 -7 14 26 37 54 37 93
88 133 172 30 63 32 75 32 173 0 98 -2 110 -33 174 -41 86 -87 144 -148 185
-51 33 -69 38 -80 19z"/>
<path d="M588 424 c-15 -8 -32 -23 -38 -34 -13 -24 -13 -86 0 -110 7 -13 5
-21 -6 -31 -24 -20 -44 -65 -44 -99 l0 -30 140 0 140 0 0 30 c0 34 -20 79 -44
99 -13 11 -13 16 0 47 38 91 -60 176 -148 128z m92 -42 c43 -35 17 -112 -38
-112 -58 0 -87 82 -40 114 29 21 51 20 78 -2z m37 -177 c13 -14 23 -30 23 -36
0 -5 -44 -9 -100 -9 -55 0 -100 3 -100 8 0 15 33 54 54 63 37 16 99 3 123 -26z"/>
</g>
</svg>
