<?xml version="1.0" standalone="no"?>
<!DOCTYPE svg PUBLIC "-//W3C//DTD SVG 20010904//EN"
 "http://www.w3.org/TR/2001/REC-SVG-20010904/DTD/svg10.dtd">
<svg version="1.0" xmlns="http://www.w3.org/2000/svg"
 width="128.000000pt" height="128.000000pt" viewBox="0 0 128.000000 128.000000"
 preserveAspectRatio="xMidYMid meet">

<g transform="translate(0.000000,128.000000) scale(0.100000,-0.100000)"
fill="#000000" stroke="none">
<path d="M252 1247 c-6 -6 -12 -28 -14 -47 l-3 -35 -100 -3 c-137 -4 -138 -5
-133 -147 3 -88 9 -121 27 -163 31 -70 98 -128 171 -150 53 -15 59 -20 85 -69
34 -66 110 -137 180 -169 l55 -25 0 -80 0 -79 -107 -51 c-134 -62 -153 -79
-153 -135 0 -77 -13 -75 378 -72 l347 3 13 27 c10 21 10 37 2 68 -10 39 -15
42 -130 100 l-120 60 0 80 0 79 55 27 c66 33 137 101 176 170 25 44 36 53 66
59 50 9 122 47 155 82 50 52 72 118 76 231 6 149 3 152 -138 152 l-110 0 0 28
c0 15 -7 38 -16 50 l-15 22 -368 0 c-283 0 -371 -3 -379 -13z m708 -272 c0
-263 -8 -299 -88 -384 -68 -72 -144 -105 -244 -104 -67 0 -88 5 -143 32 -77
38 -136 102 -165 177 -18 49 -20 78 -20 279 l0 225 330 0 330 0 0 -225z m-720
-50 c0 -96 -3 -175 -7 -175 -5 0 -30 13 -58 28 -34 18 -59 42 -79 76 -27 43
-31 59 -34 147 l-4 99 91 0 91 0 0 -175z m978 81 c-3 -75 -9 -103 -29 -142
-26 -51 -85 -96 -143 -110 -28 -7 -29 -6 -23 26 4 18 7 97 7 176 l0 144 96 0
96 0 -4 -94z m-528 -651 l0 -65 -55 0 -55 0 0 65 0 65 55 0 55 0 0 -65z m140
-183 c184 -91 182 -92 -194 -92 -308 0 -316 1 -316 20 0 15 26 32 113 74 108
53 115 54 197 54 83 1 87 0 200 -56z"/>
<path d="M417 1094 c-4 -4 -7 -84 -7 -178 0 -144 3 -177 19 -211 22 -49 74
-95 107 -95 32 0 44 30 19 44 -10 6 -32 23 -49 38 l-31 26 -5 189 c-5 180 -6
188 -25 191 -12 2 -24 0 -28 -4z"/>
</g>
</svg>
